<svg viewBox="364.6 235.1489 556.0459 157.1309" width="5000" height="1412.9310188241654" xmlns="http://www.w3.org/2000/svg" xmlns:xlink="http://www.w3.org/1999/xlink" preserveAspectRatio="none"><defs></defs><style>.aD6z1nYkhcolor {fill:#FFFFFF;fill-opacity:1;}.aD6z1nYkhstrokeColor-str {stroke:#D9D9D9;stroke-opacity:1;}.arwj6VXffs0fillColor {fill:#FFFFFF;fill-opacity:1;}.arwj6VXffs0strokeColor-str {stroke:#D9D9D9;stroke-opacity:1;}.atBXipXk0bfillColor {fill:#FFFFFF;fill-opacity:1;}.atBXipXk0bstrokeColor-str {stroke:#D9D9D9;stroke-opacity:1;}</style><defs></defs><g opacity="1" transform="rotate(0 364.6 247.8577)">
<svg width="123.121" height="131.7133" x="364.6" y="247.8577" version="1.1" preserveAspectRatio="none" viewBox="3.464077949523926 0.7800033092498779 91.08445739746094 97.44097137451172">
  <g transform="matrix(1 0 0 1 0 0)"><defs><g id="id-IptOCySn0"><path d="M48.461,49.951c-1.563-0.668-3.163-1.047-4.406-0.977c-1.559,0.087-2.516,0.938-2.615,0.938  c-0.062,0-0.142-0.012-0.164-0.072c-0.045-0.123,0.051-0.442,0.499-0.818c1.204-1.004,2.796-1.214,3.923-1.214  c1.832,0,3.776,0.667,5.225,1.492c0.803,0.456,1.428,0.214,1.482,0.192C52.407,49.554,52.2,51.551,48.461,49.951z M64.356,84.114  c0.539,3.171,1.156,5.899,1.961,9.04 M56.558,58.919c-0.016,0.546,0.311,1.065,0.941,1.501c0.092,0.063,0.197,0.094,0.301,0.094  c0.166,0,0.33-0.078,0.436-0.229c0.166-0.237,0.105-0.568-0.135-0.737c-0.307-0.213-0.488-0.441-0.486-0.605  c0.076-2.933-0.877-5.313-0.916-5.411c-0.109-0.271-0.42-0.4-0.691-0.293c-0.27,0.11-0.4,0.421-0.291,0.69  C55.728,53.953,56.628,56.204,56.558,58.919z M46.576,63.836c-0.167-0.238-0.497-0.3-0.736-0.134  c-0.681,0.474-1.088,1.246-1.088,2.069c0,0.292,0.236,0.528,0.529,0.528s0.529-0.237,0.529-0.528c0-0.476,0.237-0.925,0.633-1.199  C46.683,64.405,46.743,64.075,46.576,63.836z M45.647,53.934l-1.942-0.414c-0.69-0.146-0.911,0.888-0.221,1.036l1.943,0.413  C46.117,55.116,46.338,54.079,45.647,53.934z M51.336,62.87c0.029,0,0.146,0,0.554,0c0.84,0,2.131,0.974,2.301,1.033  c0.158,0.062,0.359,0.1,0.58,0.1c0.223,0,0.426-0.038,0.584-0.102c0.168-0.06,1.574-1.031,2.295-1.031h0.553  c0.584,0,0.785-0.45,0.42-0.907c-0.111-0.14-0.646-0.553-1.309-0.408c-0.281,0.061-0.447,0.144-0.625,0.281  c-0.047,0.033-0.215,0.176-0.215,0.176c-0.113,0.098-0.234,0.188-0.418,0.268c-0.145,0.061-0.338,0.12-0.609,0.158  c-0.191,0.026-0.416,0.045-0.678,0.045s-0.484-0.018-0.678-0.045c-0.271-0.038-0.465-0.098-0.607-0.158  c-0.186-0.079-0.305-0.171-0.42-0.268c0,0-0.17-0.144-0.215-0.176c-0.178-0.138-0.344-0.221-0.625-0.281  c-0.662-0.145-1.196,0.269-1.308,0.408C50.551,62.42,50.752,62.87,51.336,62.87z M51.667,60.515c0.105,0,0.209-0.029,0.301-0.093  c0.629-0.438,0.955-0.957,0.941-1.503c-0.068-2.693,0.824-4.948,0.84-4.986c0.109-0.271-0.02-0.581-0.291-0.691  s-0.58,0.021-0.689,0.292c-0.041,0.102-0.994,2.479-0.918,5.412c0.004,0.166-0.178,0.393-0.487,0.605  c-0.239,0.168-0.3,0.497-0.133,0.737C51.334,60.437,51.499,60.517,51.667,60.515z M45.271,51.778  c-1.101,0.103-2.079,0.429-2.734,0.931c-0.232,0.177-0.565,0.133-0.742-0.1c-0.178-0.232-0.133-0.562,0.098-0.741  c1.062-0.812,2.758-1.249,4.542-1.173c1.656,0.072,3.185,0.574,4.194,1.372c0.229,0.181,0.268,0.517,0.087,0.745  c-0.104,0.131-0.259,0.199-0.415,0.199c-0.116,0-0.232-0.037-0.329-0.112c-0.413-0.329-0.956-0.599-1.572-0.797  c-0.001,0.869-0.71,1.578-1.581,1.578c-0.871,0-1.581-0.71-1.581-1.581C45.237,51.99,45.249,51.882,45.271,51.778z M46.296,52.1  c0,0.289,0.234,0.521,0.521,0.521s0.522-0.234,0.522-0.521c0-0.092-0.025-0.178-0.07-0.256c-0.275-0.043-0.557-0.074-0.841-0.089  C46.343,51.85,46.296,51.971,46.296,52.1z M58.722,52.812c-0.182-0.23-0.141-0.564,0.086-0.745c1.01-0.8,2.539-1.3,4.193-1.372  c1.783-0.078,3.48,0.361,4.543,1.173c0.23,0.179,0.275,0.511,0.098,0.741c-0.178,0.232-0.51,0.276-0.742,0.1  c-0.654-0.502-1.635-0.83-2.736-0.931c0.021,0.104,0.035,0.212,0.035,0.321c0,0.871-0.709,1.581-1.58,1.581  c-0.869,0-1.578-0.709-1.58-1.578c-0.617,0.198-1.158,0.468-1.57,0.797c-0.098,0.077-0.213,0.112-0.33,0.112  C58.981,53.012,58.825,52.943,58.722,52.812z M62.097,52.1c0,0.289,0.234,0.521,0.521,0.521s0.521-0.234,0.521-0.521  c0-0.129-0.049-0.25-0.133-0.345c-0.285,0.017-0.566,0.047-0.842,0.089C62.122,51.92,62.097,52.008,62.097,52.1z M59.513,57.391  c0.102-0.011,0.207-0.015,0.311-0.021l0.023,0.455c0.016,0.282,0.248,0.502,0.529,0.502c0.008,0,0.016,0,0.025-0.001  c0.291-0.016,0.518-0.265,0.504-0.555l-0.023-0.426c0.473,0.008,0.938,0.034,1.391,0.085l-0.094,0.284  c-0.094,0.279,0.057,0.58,0.334,0.671c0.055,0.019,0.111,0.027,0.168,0.027c0.223,0,0.428-0.141,0.502-0.361l0.152-0.453  c0.311,0.062,0.617,0.133,0.913,0.216L64.222,57.9c-0.084,0.281,0.075,0.575,0.355,0.66c0.051,0.016,0.104,0.021,0.154,0.021  c0.227,0,0.436-0.148,0.504-0.377l0.016-0.049c0.338,0.137,0.664,0.281,0.969,0.446c0.08,0.046,0.166,0.065,0.254,0.065  c0.188,0,0.369-0.101,0.465-0.273c0.141-0.258,0.045-0.58-0.211-0.719c-0.381-0.208-0.791-0.394-1.219-0.557  c-0.031-0.194-0.168-0.365-0.371-0.426c-0.189-0.058-0.383-0.001-0.518,0.128c-0.309-0.09-0.627-0.165-0.949-0.233l0.025-0.074  c0.094-0.278-0.057-0.578-0.334-0.67c-0.277-0.094-0.578,0.057-0.67,0.333l-0.076,0.23c-0.584-0.075-1.18-0.119-1.785-0.123  l-0.012-0.222c-0.014-0.292-0.266-0.521-0.555-0.502c-0.291,0.015-0.516,0.264-0.502,0.555l0.01,0.197  c-0.115,0.008-0.232,0.012-0.348,0.021c-0.293,0.026-0.508,0.281-0.484,0.572C58.964,57.198,59.224,57.412,59.513,57.391z   M65.433,53.52l-1.941,0.414c-0.691,0.146-0.471,1.183,0.221,1.035l1.941-0.413C66.345,54.407,66.124,53.373,65.433,53.52z   M63.304,63.551c-0.258-0.139-0.578-0.042-0.719,0.216c-0.137,0.257-0.041,0.578,0.217,0.717c0.482,0.259,0.779,0.753,0.779,1.288  c0,0.293,0.236,0.529,0.529,0.529s0.531-0.236,0.531-0.529C64.642,64.845,64.128,63.994,63.304,63.551z M57.347,67.051  c2.162-0.069,3.393-0.207,4.971-0.841c0.271-0.109,0.402-0.419,0.295-0.688c-0.109-0.271-0.418-0.403-0.689-0.296  c-1.438,0.58-2.537,0.701-4.594,0.769h-5.484c-2.07-0.067-3.169-0.188-4.606-0.769c-0.271-0.108-0.58,0.023-0.689,0.296  c-0.111,0.27,0.022,0.581,0.293,0.688c1.578,0.634,2.808,0.772,4.988,0.841H57.347z M92.491,17.457  c-2.691,7.28-7.641,11.22-11.32,13.247c-2.375,1.306-4.508,2-5.877,2.351c0.139,0.438,0.264,0.883,0.377,1.33  c0.084-0.039,0.178-0.056,0.275-0.046c0.256,0.025,0.457,0.229,0.477,0.487l0.486,6.321c0.006,0.082-0.008,0.163-0.035,0.238  c-0.053,0.132-0.119,0.258-0.197,0.377c0.088,0.334,0.174,0.669,0.262,0.995c1.289,4.874,2.748,10.322,5.139,16.128  c0.268,0.65,0.551,1.309,0.844,1.97c0.148,0.319,0.363,0.787,0.602,1.32c0.057,0.124,0.113,0.249,0.174,0.373  c0.064,0.138,0.289,0.693,0.355,0.831c-0.002,0-0.004-0.002-0.006-0.002c0.441,1.044,0.854,2.109,0.984,2.722  c0.773,3.602,0.279,6.424-0.17,7.973c0.49,0.086,0.816,0.146,0.941,0.168c0.182,0.029,0.34,0.151,0.41,0.33  c0.082,0.212,0.02,0.453-0.152,0.598c-0.09,0.075-0.203,0.114-0.318,0.122v0.001c-2.492,0.116-5.875,0.178-9.453,0.243  c-1.02,0.018-2.068,0.038-3.129,0.059c-0.057,2.272-0.232,4.492-0.602,6.573c-0.029,0.199-0.061,0.413-0.094,0.631  c-0.244,1.562-1.559,9.339-3.496,9.339c-0.043,0-0.086-0.003-0.127-0.009c-0.049-0.008-0.096-0.02-0.141-0.036  c-0.641,2.241-1.248,2.556-1.721,2.556c-0.021,0-0.045,0-0.066-0.003c-0.164-0.013-0.303-0.069-0.426-0.156  c-0.527,1.736-1.064,1.993-1.496,1.993c-0.01,0-0.033,0-0.043-0.002c-0.305-0.016-0.539-0.182-0.725-0.432  c-0.342,0.802-0.73,1.17-1.201,1.17c-0.01,0-0.033,0-0.043,0c-0.346-0.018-0.598-0.228-0.789-0.526  c-0.322,0.667-0.68,0.977-1.115,0.977c-0.012,0-0.033,0-0.043-0.002c-0.326-0.017-0.57-0.213-0.758-0.49  c-0.229,0.39-0.529,0.666-0.938,0.666c-0.324-0.007-0.568-0.178-0.762-0.425c-0.205,0.28-0.471,0.478-0.811,0.478  c-0.291-0.005-0.52-0.146-0.699-0.351c-0.215,0.325-0.496,0.562-0.869,0.562c-0.336-0.007-0.59-0.195-0.783-0.459  c-0.215,0.33-0.494,0.574-0.873,0.574h-0.004c-0.375-0.002-0.65-0.238-0.857-0.566c-0.191,0.262-0.439,0.444-0.766,0.452  c-0.381,0-0.666-0.236-0.883-0.561c-0.178,0.207-0.4,0.343-0.687,0.35l0,0c-0.348,0-0.615-0.198-0.824-0.478  c-0.189,0.245-0.431,0.418-0.747,0.426c-0.417,0-0.723-0.277-0.953-0.668c-0.187,0.276-0.431,0.473-0.757,0.49  c-0.009,0.001-0.033,0.001-0.043,0.001c-0.434,0-0.794-0.31-1.115-0.976c-0.192,0.299-0.445,0.508-0.791,0.526  c-0.009,0-0.033,0-0.042,0c-0.47,0-0.859-0.369-1.202-1.169c-0.183,0.25-0.419,0.416-0.725,0.431  c-0.009,0.002-0.033,0.002-0.042,0.002c-0.431,0-0.968-0.257-1.496-1.994c-0.122,0.088-0.262,0.144-0.426,0.157  c-0.022,0.003-0.044,0.003-0.067,0.003c-0.473,0-1.081-0.314-1.72-2.556c-0.046,0.016-0.093,0.028-0.141,0.036  c-0.042,0.007-0.084,0.01-0.128,0.01c-1.935,0-3.251-7.778-3.496-9.339c-0.08-0.511-0.152-1.021-0.215-1.517  c-0.098-0.647-0.176-1.308-0.244-1.976c-12.74,2.321-24.08,5.255-31.985,8.281c-0.062,0.023-0.126,0.036-0.189,0.036  c-0.213,0-0.414-0.131-0.495-0.341c-0.104-0.272,0.032-0.58,0.305-0.683c2.121-0.812,4.488-1.619,7.059-2.407  c0.022-0.026,0.047-0.052,0.076-0.076c3.252-2.653,7.032-4.983,11.224-6.941c-1.885-3.092-0.379-7.951,1.245-10.618  c0.811-1.334,1.427-2.508,1.839-3.346c0.001-0.011,0.001-0.017,0.006-0.022c0,0,0.62-1.326,0.625-1.338  c3.265-7.127,4.869-13.789,6.263-19.627c0.055-0.231,0.11-0.466,0.166-0.703c-0.021-0.045-0.042-0.089-0.06-0.135  c-0.03-0.076-0.042-0.155-0.037-0.236l0.487-6.323c0.019-0.258,0.221-0.461,0.476-0.487c0.096-0.011,0.19,0.007,0.273,0.046  c0.113-0.444,0.237-0.883,0.374-1.317c-1.366-0.348-3.522-1.043-5.923-2.364c-3.68-2.027-8.631-5.967-11.321-13.247  c-2.359-6.381-2.394-15.184-1.576-16.358c0.194-0.278,0.44-0.319,0.57-0.319c0.676,0,0.975,0.793,1.966,3.424  c0.528,1.4,1.202,3.185,2.037,5.02c0.068,0.078,0.111,0.174,0.125,0.275c0.693,1.499,1.495,3.018,2.414,4.382  c1.16,1.721,2.49,3.224,3.997,4.516c0.032,0.018,0.064,0.04,0.094,0.065c0.11,0.099,0.221,0.192,0.332,0.289  c3.213,2.612,7.208,4.307,12.071,5.136l0.088,0.014c0.125,0.02,0.244,0.052,0.361,0.095c3.208-3.466,7.228-5.718,11.616-6.555  c0.037-0.049,0.079-0.095,0.134-0.13l3.065-1.978c0.084-0.056,0.186-0.085,0.285-0.085h0.844c0.094,0,0.188,0.026,0.27,0.074  l3.346,1.978c0.086,0.052,0.154,0.127,0.199,0.216c4.217,0.887,8.088,3.091,11.193,6.424c-0.025,0.026-0.047,0.056-0.07,0.082  c0.135-0.057,0.277-0.098,0.428-0.121l0.1-0.015c4.855-0.829,8.848-2.521,12.059-5.131c0.111-0.097,0.227-0.192,0.336-0.292  c0.029-0.026,0.059-0.047,0.092-0.066c1.508-1.292,2.838-2.794,3.998-4.516c0.92-1.363,1.719-2.884,2.412-4.382  c0.016-0.102,0.059-0.197,0.127-0.274c0.836-1.835,1.508-3.62,2.035-5.02c0.992-2.632,1.293-3.425,1.963-3.425  c0.135,0,0.381,0.042,0.576,0.319C94.884,2.271,94.849,11.075,92.491,17.457z M16.051,3.267c-0.127-0.326-0.249-0.625-0.356-0.87  c-0.121,0.839-0.176,2.313-0.093,4.119C15.674,5.429,15.819,4.338,16.051,3.267z M69.796,25.681  c1.418-0.384,2.834-0.887,4.223-1.501c-1.078,0.299-2.205,0.55-3.379,0.75l-0.107,0.017c-0.258,0.04-0.459,0.191-0.613,0.464  C69.872,25.491,69.833,25.584,69.796,25.681z M58.878,37.981c3.74-0.149,7.117-0.5,10.23-1.066c0.213-0.039,0.486-0.08,0.803-0.127  c1.227-0.183,3.77-0.567,4.918-1.379c-0.156-0.712-0.346-1.424-0.566-2.118c-0.273,0.053-0.451,0.08-0.512,0.088  c-0.266,0.055-0.525,0.081-0.77,0.081c-1.602,0-2.432-1.14-2.916-1.998c-0.133-0.236-0.156-0.559-0.182-0.9  c-0.006-0.09-0.018-0.214-0.029-0.318c-0.447-0.016-0.627-0.298-0.693-0.467c-0.73-1.813-0.795-3.78-0.162-4.892  c0.059-0.101,0.123-0.192,0.189-0.279c-2.877-3.068-6.436-5.122-10.311-5.998V37.981z M70.938,30.484  c0.004,0.049,0.008,0.107,0.014,0.166c3.924-0.995,6.672-2.098,8.65-3.182c-2.557,1.156-5.406,1.997-8.705,2.6  C70.917,30.2,70.929,30.339,70.938,30.484z M58.366,46.514c-0.516,0.016-1.045,0.029-1.582,0.04  c-0.693,0.859-1.338,1.745-1.928,2.655c2.125-1.645,4.455-2.979,6.928-3.976c-0.945,0.063-1.91,0.116-2.906,0.155v0.597  C58.878,46.271,58.651,46.505,58.366,46.514z M51.626,45.479c2.059,0.049,4.211,0.047,6.193-0.008V18.056l-2.959-1.75h-0.545  l-2.689,1.736V45.479L51.626,45.479z M48.022,48.782c2.09-0.468,4.16-1.216,6.15-2.21c-1.021-0.005-2.039-0.018-3.032-0.047  C50.172,47.358,49.132,48.114,48.022,48.782z M50.662,49.76c-0.239-0.136-0.484-0.262-0.734-0.379  c-0.291,0.084-0.582,0.165-0.872,0.238c0.724,0.279,1.334,0.421,1.819,0.421c0.139,0,0.26-0.012,0.363-0.033  C51.043,49.951,50.851,49.868,50.662,49.76z M39.215,30.245c-0.011,0.101-0.021,0.228-0.027,0.317  c-0.026,0.342-0.048,0.665-0.182,0.9c-0.484,0.858-1.313,1.998-2.916,1.998c-0.244,0-0.503-0.026-0.77-0.081  c-0.057-0.007-0.215-0.032-0.46-0.079c-0.219,0.687-0.406,1.389-0.562,2.096c0.965,0.66,2.881,0.998,3.927,1.183  c0.271,0.046,0.509,0.09,0.701,0.13c3.474,0.719,7.243,1.139,11.642,1.292v-19.46c-4.016,0.834-7.696,2.926-10.659,6.098  c0.058,0.077,0.113,0.158,0.164,0.246c0.633,1.113,0.569,3.079-0.161,4.892C39.843,29.948,39.663,30.229,39.215,30.245z   M38.131,30.484c0.011-0.145,0.023-0.284,0.042-0.417c-3.3-0.604-6.148-1.443-8.704-2.601c1.977,1.085,4.726,2.188,8.649,3.183  C38.124,30.59,38.128,30.533,38.131,30.484z M35.049,24.179c1.391,0.613,2.807,1.118,4.225,1.501  c-0.036-0.097-0.076-0.189-0.123-0.271c-0.155-0.273-0.356-0.424-0.614-0.464l-0.095-0.016  C37.263,24.729,36.132,24.479,35.049,24.179z M18.598,9.624c-0.719-1.584-1.318-3.121-1.807-4.413  c-0.562,4.343,0.167,8.783,0.905,11.59C17.418,13.51,18.166,10.839,18.598,9.624z M35.481,32.333  c0.012,0.001,0.024,0.005,0.036,0.006c0.896,0.186,1.536-0.018,2.112-0.722c-9.042-2.326-11.985-5.204-14.026-7.728  c-0.17-0.209-0.155-0.512,0.033-0.704c0.188-0.192,0.49-0.213,0.703-0.046c3.991,3.104,8.506,4.955,14.64,6  c0.013,0.003,0.024,0.008,0.037,0.011c0.292-0.798,0.44-1.619,0.436-2.327c-4.786-1.21-9.562-3.757-13.535-7.208  c-1.782-1.442-3.337-3.153-4.679-5.142c-0.731-1.084-1.386-2.259-1.972-3.439c-0.65,2.399-1.291,7.006,1.328,11.798  c0.002,0.003,0.003,0.008,0.006,0.013c2.448,3.431,5.389,5.594,7.773,6.91C32.193,31.864,35.45,32.328,35.481,32.333z M33.28,41.094  c0.62,1.202,3.454,1.658,4.996,1.908c0.317,0.051,0.603,0.096,0.839,0.142c3.426,0.654,7.206,1.048,11.452,1.195V39.06  c-4.475-0.154-8.312-0.582-11.856-1.314c-0.184-0.039-0.411-0.079-0.67-0.124c-1.297-0.229-3.222-0.569-4.387-1.395L33.28,41.094z   M40.84,44.521l-0.732,1.863c0,0,0.36-0.559,1.238-1.078c0.503-0.297,1.118-0.519,1.118-0.519L40.84,44.521z M33.702,50.19  c0.518-0.103,1.045-0.055,1.555,0.108c0.081,0.026,0.16,0.056,0.241,0.087c0.157-2.224,0.591-4.432,1.252-6.572  c-0.48-0.093-0.977-0.203-1.458-0.34C34.669,45.559,34.14,47.8,33.702,50.19z M34.294,43.132c-0.071-0.029-0.142-0.059-0.211-0.09  c-0.07,0.486-0.138,0.978-0.193,1.486C34.019,44.054,34.155,43.59,34.294,43.132z M36.512,50.951  c0.184,0.134,0.362,0.281,0.535,0.441c0.017-0.014,0.036-0.025,0.056-0.035c0.412-1.554,0.982-2.797,1.675-3.792  c0.333-1.057,0.746-2.125,1.228-3.187c-0.354-0.061-0.708-0.123-1.055-0.188C37.975,46.323,37.188,48.609,36.512,50.951z   M37.878,44.011c-0.03-0.005-0.062-0.011-0.091-0.015c-0.07,0.221-0.138,0.445-0.203,0.67  C37.678,44.443,37.779,44.228,37.878,44.011z M28.629,63.672c-0.029,0.138-1.739,8.786-2.271,11.471  c0.216-0.496,0.662-1.537,1.391-3.287c0.399-0.962,1.618-4.292,2.286-6.675c-0.001-0.002-0.002-0.002-0.004-0.002  c0.929-3.114,1.491-6.169,1.798-9.307c0.004-0.033,0.009-0.064,0.017-0.094c-0.544-1.961-0.474-4.003,0.658-5.011  c0.005-2.71,0.166-5.197,0.471-7.475c-0.739,3.086-1.557,6.413-2.661,9.916C29.95,56.29,29.377,59.792,28.629,63.672z   M34.624,67.108c0.007-0.057,0.384-3.283,1.167-5.008c-0.395-0.272-0.779-0.646-1.16-1.112c-0.315,1.205-0.847,3.141-1.494,5.362  c0-0.002-0.001-0.002-0.002-0.002c-0.358,1.245-1.279,4.404-1.722,5.55c-0.287,0.74-0.628,1.489-0.895,2.045  c1.395-0.439,2.82-0.84,4.272-1.205c-0.501-1.426-0.301-4.323-0.16-5.628C34.628,67.109,34.626,67.108,34.624,67.108z   M33.825,59.864c-0.378-0.587-0.76-1.26-1.158-2.016c-0.324,2.461-0.821,4.891-1.541,7.354c-0.66,2.44-1.978,6.047-2.4,7.06  c-0.502,1.208-0.871,2.076-1.124,2.666c0.5-0.18,1.004-0.358,1.512-0.528c0.008-0.021,0.016-0.044,0.026-0.064  c0.008-0.015,0.759-1.46,1.285-2.819c0.527-1.367,1.846-5.995,1.854-6.01C33.037,62.886,33.614,60.739,33.825,59.864z   M22.593,75.588c0.127,0.408,0.306,0.791,0.539,1.143c0.665-0.297,1.341-0.583,2.026-0.861c-0.005-0.049-0.004-0.098,0.005-0.147  c0,0,2.235-11.199,2.224-11.2c0.444-2.235,0.822-4.278,1.137-6.205c-0.388,0.998-1.579,3.831-2.871,6.364  c0.007,0.033,0.014,0.064,0.016,0.101c0.02,0.393,0.03,0.713,0.03,1.068C25.699,70.015,24.487,73.79,22.593,75.588z M22.345,74.289  c1.296-1.637,2.163-4.538,2.281-7.707c-0.104,0.179-0.208,0.355-0.311,0.521C23.206,68.911,22.138,71.818,22.345,74.289z   M13.669,83.36c3.922-1.121,8.247-2.202,12.855-3.209l0.505-0.476v0.002c2.081-1.931,5.145-3.587,8.902-4.811  c-0.008-0.434-0.011-0.87-0.01-1.31C27.351,75.598,19.724,78.966,13.669,83.36z M36.08,78.244c-0.057-0.748-0.096-1.506-0.122-2.272  c-2.973,0.997-5.467,2.27-7.325,3.728C31.049,79.192,33.538,78.707,36.08,78.244z M36.348,63.894  c-0.278,1.03-0.51,2.171-0.676,3.413c-0.161,1.514-0.271,4.191,0.153,5.182c0.035-0.011,0.07-0.018,0.107-0.025  C35.974,69.576,36.157,66.664,36.348,63.894z M36.849,52.715c-0.606-0.729-1.282-1.205-1.913-1.406  c-0.439-0.143-0.855-0.149-1.238-0.025c-1.292,0.422-1.655,3.092-0.119,6.022c1.21,2.306,2.112,3.51,2.949,4.003  c0.038-0.563,0.076-1.12,0.11-1.673c0.026-0.418,0.051-0.849,0.076-1.284c-0.092-0.028-0.176-0.082-0.241-0.163  c-0.862-1.045-1.394-2.491-1.502-4.075c-0.248-0.216-0.514-0.408-0.797-0.569c-0.254-0.144-0.343-0.467-0.198-0.722  c0.145-0.254,0.468-0.343,0.722-0.198c0.872,0.495,1.606,1.212,2.159,2.077C36.864,54.028,36.863,53.362,36.849,52.715z   M37.026,76.289c0.707-4.376,1.067-9.065,1.067-13.991c0-1.277-0.026-2.559-0.076-3.812c-0.069-0.309-0.137-0.617-0.202-0.923  c-0.036,0.733-0.079,1.452-0.122,2.141c-0.065,1.035-0.14,2.096-0.213,3.17C37.168,67.355,36.852,71.947,37.026,76.289z   M38.307,85.945c1.56-5.181,2.366-11.524,2.279-18.09c-0.004-0.271-0.011-0.538-0.016-0.807c-0.531-1.312-1-2.719-1.421-4.15  c-0.037,6.167-0.629,11.967-1.766,17.241c-0.009,0.038-0.022,0.073-0.038,0.109c0.038,0.296,0.076,0.592,0.12,0.884  c0.064,0.499,0.135,1,0.212,1.5C37.871,83.875,38.085,84.978,38.307,85.945z M42.279,80.34c0.005-0.033,0.016-0.064,0.025-0.096  c-0.473-0.952-0.853-2.006-1.136-3.14c-0.468,3.935-1.269,7.602-2.368,10.764c0.472,1.628,0.923,2.637,1.218,3.039  C40.794,88.327,41.613,84.502,42.279,80.34z M44.57,81.832c0.225-1.267,0.446-2.578,0.661-3.928c0.001-0.004,0.003-0.01,0.004-0.014  c-0.396-1.47-0.699-3.025-0.901-4.638c-0.97-0.938-1.834-2.198-2.602-3.664C41.256,74.596,42.295,79.094,44.57,81.832z   M44.335,83.147c-0.437-0.442-0.838-0.935-1.203-1.473c-0.604,3.574-1.292,6.749-1.976,9.119c0,0.002,0,0.004,0.001,0.006  c0.401,1.739,0.752,2.418,0.928,2.669c0.036-0.075,0.08-0.185,0.126-0.336c-0.01-0.069-0.006-0.14,0.013-0.211  C42.904,90.375,43.63,87.006,44.335,83.147z M47.896,96.3c-0.223-2.804-0.34-5.71-0.34-8.649c0-1.263,0.024-2.503,0.073-3.739  c-0.646-1.146-1.212-2.409-1.693-3.763c-0.857,5.089-1.775,9.567-2.625,12.802c0.321,1.499,0.617,2.112,0.773,2.351  c0.079-0.151,0.192-0.441,0.308-0.974c0.052-0.24,0.263-0.414,0.509-0.416c0.248-0.003,0.463,0.161,0.522,0.398  c0.264,1.053,0.498,1.526,0.63,1.726c0.075-0.144,0.184-0.415,0.294-0.907c0.033-0.147,0.129-0.275,0.264-0.35  c0.134-0.072,0.293-0.084,0.436-0.031l0.09,0.031c0.163,0.058,0.288,0.191,0.333,0.357C47.637,95.721,47.783,96.081,47.896,96.3z   M48.394,75.039c-0.083,0-0.167-0.001-0.25-0.005c-0.934-0.024-1.8-0.317-2.604-0.821c0.436,2.778,1.183,5.349,2.196,7.571  C47.874,79.619,48.09,77.414,48.394,75.039z M48.396,73.981c1.373-0.002,2.617-0.296,2.815-3.563  c-0.415-0.108-0.775-0.239-1.06-0.395c-0.257-0.141-0.351-0.462-0.21-0.717c0.14-0.258,0.461-0.351,0.719-0.211  c1.542,0.845,6.321,0.845,7.864,0c0.256-0.14,0.578-0.047,0.719,0.211c0.141,0.257,0.045,0.578-0.211,0.717  c-0.307,0.17-0.709,0.307-1.164,0.423c0.203,2.255,1.113,3.414,2.773,3.533c5.678,0.402,8.426-9.193,9.627-15.627  c-2.596,2.252-2.66,2.701-2.891,4.32l-0.016,0.104c-0.037,0.266-0.266,0.455-0.523,0.455c-0.023,0-0.047-0.002-0.074-0.005  c-0.289-0.042-0.49-0.309-0.449-0.6l0.016-0.102c0.271-1.922,0.477-2.584,3.342-5.059c0.012-0.011,0.027-0.021,0.041-0.032  c0.006-0.002,0.988-0.755,1.275-2.951c0.002-0.017,0.008-0.035,0.012-0.053c0.062-0.471,0.111-0.912,0.145-1.309  c0.006-0.457,0.018-0.903,0.037-1.32c0.006-0.094,0.035-0.178,0.08-0.253c-0.564-3.37-1.977-5.163-3.512-6.941  c-0.004,0.002-0.01,0.003-0.012,0.005c-3.867,0.695-7.508,2.181-10.734,4.354c0.076-0.002,0.152,0.009,0.225,0.039  c0,0,0.115,0.044,0.299,0.044c0.236,0,0.48-0.07,0.723-0.208c1.742-0.991,3.742-1.561,5.488-1.561c1.211,0,2.936,0.233,4.26,1.338  c0.561,0.468,0.807,0.993,0.656,1.404c-0.094,0.266-0.342,0.424-0.662,0.424c-0.174,0-0.293-0.078-0.457-0.182  c-0.326-0.208-1.09-0.698-2.186-0.761c-1.137-0.062-2.629,0.277-4.17,0.937c-1.027,0.438-1.908,0.662-2.621,0.662l0,0  c-0.852,0-1.34-0.32-1.598-0.587c-0.395-0.406-0.467-0.886-0.463-1.036c0.002-0.07,0.021-0.137,0.049-0.197  c-1.178,0.826-2.295,1.745-3.346,2.752c-0.104,0.098-0.236,0.146-0.367,0.146c-0.111,0-0.221-0.034-0.316-0.103  c-0.207-0.154-0.273-0.436-0.156-0.668c0.691-1.354,1.494-2.672,2.398-3.94c-1.113,0.56-2.256,1.048-3.411,1.455  c0.187,0.081,0.372,0.125,0.554,0.125c0.186,0,0.301-0.045,0.301-0.047c0.16-0.062,0.346-0.045,0.49,0.05  c0.143,0.096,0.236,0.254,0.238,0.425c0.004,0.15-0.07,0.631-0.465,1.035c-0.258,0.269-0.748,0.586-1.597,0.586  c-0.712,0-1.593-0.225-2.621-0.662c-0.361-0.154-0.718-0.29-1.069-0.407c-0.77,0.142-1.54,0.243-2.308,0.31  c-0.016,0-0.031,0.002-0.046,0.002c-0.242,0-0.455-0.166-0.514-0.402c-0.04-0.158-0.002-0.321,0.09-0.445  c-0.111-0.002-0.219,0-0.324,0.006c-1.095,0.062-1.86,0.552-2.187,0.762c-0.164,0.104-0.282,0.18-0.457,0.18  c-0.32,0-0.567-0.158-0.663-0.424c-0.15-0.411,0.097-0.935,0.657-1.403c1.326-1.106,3.049-1.339,4.262-1.339  c0.725,0,1.496,0.099,2.274,0.287c0.918-0.586,1.784-1.241,2.595-1.95V45.4c-2.082-0.073-4.052-0.205-5.925-0.394  c-3.105,0.712-5.604,2.487-6.673,7.263c0.051,0.313,0.116,0.749,0.172,1.291c0.035,0.327,0.101,0.867,0.102,0.878  c0.287,2.194,1.297,2.996,1.308,3.003c0.011,0.009,0.026,0.021,0.036,0.027c2.864,2.474,3.069,3.137,3.342,5.058l0.015,0.102  c0.042,0.291-0.16,0.558-0.45,0.6c-0.025,0.003-0.05,0.004-0.075,0.004c-0.26,0-0.487-0.188-0.524-0.453l-0.014-0.104  c-0.227-1.599-0.293-2.059-2.791-4.231c1.428,6.32,4.31,15.406,9.081,15.537C48.248,73.979,48.322,73.981,48.396,73.981z   M45.698,48.337c-0.376,0-0.807,0.024-1.256,0.1c0.508,0.006,1.068,0.079,1.656,0.204c0.158-0.08,0.314-0.166,0.47-0.249  C46.269,48.356,45.978,48.337,45.698,48.337z M58.562,50.041c0.568,0,1.311-0.194,2.203-0.577c1.516-0.647,3.014-1.012,4.229-1.028  c-0.447-0.075-0.879-0.1-1.254-0.1c-1.543,0-3.4,0.531-4.965,1.423c-0.189,0.109-0.381,0.191-0.578,0.249  C58.3,50.029,58.423,50.041,58.562,50.041z M69.595,45.167c0.404,0.5,0.756,1.001,1.064,1.513c-0.164-0.887-0.346-1.708-0.553-2.478  c-0.373,0.071-0.752,0.14-1.133,0.205C69.175,44.648,69.382,44.9,69.595,45.167z M72.399,51.256c0.969-0.836,1.902-1.19,2.713-1.159  c-0.736-2.209-1.41-4.371-2.094-6.418c-0.646,0.146-1.291,0.253-1.863,0.346C71.706,46.102,72.054,48.502,72.399,51.256z   M52.255,70.626c-0.061,0.864-0.197,1.587-0.41,2.182c-0.01,0.088-0.018,0.156-0.02,0.197c-0.326,2.956-0.289,6.053,0.113,9.203  c0.092,0.72,0.201,1.438,0.33,2.146c0.73-3.479,1.23-8.277,1.396-13.576c0-0.003,0.002-0.011,0.002-0.015  C53.179,70.739,52.702,70.693,52.255,70.626z M55.196,95.926c-2.18-3.847-3.666-8.521-4.309-13.585  c-0.342-2.679-0.422-5.32-0.251-7.876c-0.333,0.221-0.718,0.377-1.162,0.47c-0.595,4.577-0.86,8.504-0.86,12.716  c0,2.594,0.095,5.158,0.27,7.65c0.007,0.002,0.015,0.002,0.021,0.003l0.078,0.017c0.185,0.045,0.331,0.187,0.384,0.367  c0.155,0.54,0.292,0.826,0.383,0.974c0.065-0.117,0.156-0.318,0.255-0.654c0.065-0.224,0.268-0.378,0.5-0.381  c0.229,0,0.44,0.146,0.511,0.366c0.123,0.379,0.23,0.598,0.305,0.72c0.058-0.104,0.136-0.271,0.222-0.54  c0.074-0.237,0.309-0.393,0.557-0.365c0.209,0.021,0.412,0.169,0.477,0.367c0.127,0.396,0.236,0.622,0.314,0.749  c0.064-0.116,0.154-0.317,0.252-0.649c0.068-0.226,0.273-0.381,0.508-0.381c0.004,0,0.01,0.002,0.016,0.002h0.086  c0.232,0.006,0.432,0.16,0.498,0.383c0.115,0.4,0.221,0.631,0.293,0.761c0.076-0.129,0.186-0.361,0.309-0.765  C54.901,96.105,55.032,95.978,55.196,95.926z M57.224,77.104c0-1.766-0.057-3.504-0.168-5.177c-0.104-0.382-0.18-0.81-0.23-1.285  c-0.66,0.091-1.381,0.143-2.104,0.146c0,0.01,0.002,0.018,0.002,0.024c-0.205,6.498-0.908,12.274-1.928,15.852  c-0.008,0.021-0.016,0.041-0.023,0.059c0.562,2.298,1.312,4.486,2.225,6.479C56.343,90.359,57.224,84.106,57.224,77.104z   M61.835,94.851c-1.154-5.877-1.938-12.455-2.389-20.046c-0.43-0.153-0.85-0.395-1.225-0.754c0.039,1.004,0.061,2.022,0.061,3.051  c0,7.734-1.088,14.644-2.715,17.27c0.311,0.609,0.635,1.198,0.977,1.757c0.078-0.177,0.242-0.304,0.441-0.319  c0.24-0.02,0.496,0.13,0.57,0.363c0.086,0.269,0.162,0.435,0.219,0.538c0.076-0.12,0.182-0.34,0.305-0.718  c0.072-0.221,0.285-0.367,0.512-0.367c0.232,0.004,0.434,0.157,0.502,0.381c0.1,0.337,0.189,0.538,0.254,0.654  c0.09-0.145,0.227-0.432,0.381-0.968c0.053-0.183,0.201-0.325,0.387-0.367l0.08-0.018c0.283-0.068,0.566,0.106,0.637,0.39  c0.1,0.415,0.197,0.654,0.264,0.787c0.117-0.175,0.307-0.554,0.527-1.338C61.655,95.023,61.733,94.92,61.835,94.851z M61.839,88.494  c0.793-1.137,1.469-2.655,1.994-4.438c0.008-0.063,0.023-0.124,0.051-0.179c0.766-2.667,1.199-5.9,1.199-9.32  c0-0.376-0.006-0.755-0.018-1.137c-1.17,1.026-2.521,1.629-4.076,1.629c-0.143,0-0.279-0.006-0.422-0.017  c-0.018,0-0.031-0.002-0.047-0.003C60.817,79.917,61.255,84.375,61.839,88.494z M65.755,93.087  c-0.668-2.618-1.152-4.745-1.557-6.871c-0.602,1.522-1.324,2.795-2.145,3.72c0.318,2.068,0.676,4.05,1.074,5.956  c0.137-0.258,0.33-0.728,0.543-1.581c0.061-0.238,0.281-0.402,0.523-0.399c0.244,0.003,0.455,0.176,0.508,0.417  c0.115,0.532,0.229,0.822,0.307,0.974C65.163,95.07,65.444,94.485,65.755,93.087z M67.927,90.85c-0.656-2.572-1.34-6.241-2.1-11.293  c-0.213,1.636-0.527,3.179-0.93,4.581c0.475,2.769,1.021,5.3,1.873,8.643c0.021,0.039,0.041,0.081,0.053,0.127  c0.068,0.279,0.137,0.454,0.188,0.562C67.185,93.219,67.528,92.551,67.927,90.85z M70.261,87.987  c-1.713-4.914-2.703-11.076-2.84-17.54c-0.412,0.708-0.857,1.355-1.338,1.926c0.006,0.084,0.01,0.157,0.012,0.209  c0.027,0.567,0.039,1.137,0.043,1.7c1.104,8.038,2.031,13.354,2.908,16.666C69.331,90.588,69.784,89.603,70.261,87.987z   M71.749,80.418c-0.035-0.055-0.062-0.114-0.078-0.182c-1.035-4.801-1.633-10.238-1.75-15.84c-0.42,1.408-0.904,2.767-1.463,4.017  c0.002,0.012,0.004,0.022,0.004,0.034c-0.045,6.396,0.77,12.579,2.293,17.633c0.232-0.999,0.457-2.147,0.662-3.447  c0.033-0.215,0.064-0.426,0.096-0.638C71.604,81.479,71.681,80.951,71.749,80.418z M71.599,62.938  c-0.107-1.494-0.211-2.951-0.293-4.359c-0.107,0.563-0.221,1.133-0.342,1.703c0,0-0.004,1.558-0.004,2.111  c0,4.932,0.381,9.778,1.105,14.212C72.257,72.108,71.915,67.316,71.599,62.938z M75.597,51.283c-1.359-0.44-2.596,0.988-3.373,1.588  c-0.008,0.093-0.014,0.191-0.023,0.299c-0.004,0.453,0,0.92,0.006,1.394c0.543-0.804,1.244-1.47,2.066-1.94  c0.256-0.144,0.578-0.055,0.723,0.199s0.057,0.577-0.197,0.721c-0.285,0.162-0.551,0.354-0.799,0.57  c-0.107,1.584-0.641,3.03-1.502,4.076c-0.041,0.051-0.092,0.09-0.145,0.121c0.055,0.985,0.121,1.996,0.197,3.031  C75.585,59.955,78.251,52.145,75.597,51.283z M72.739,64.014l3.096,8.561c0.393,0.062,0.779,0.124,1.16,0.184  c-0.764-1.96-1.32-3.451-1.635-4.307l-0.008,0.001c-0.822-2.201-1.396-4.171-1.805-6.383c-0.297,0.211-0.602,0.362-0.918,0.46  c0.01,0.11,0.018,0.221,0.025,0.331C72.685,63.241,72.71,63.626,72.739,64.014z M73.163,72.163c0.492,0.076,0.986,0.149,1.467,0.225  l-1.631-4.336C73.075,69.415,73.134,70.791,73.163,72.163z M80.446,74.393c-2.066-0.344-4.59-0.751-7.27-1.156  c0.004,0.434,0.004,0.865,0,1.294c1.049-0.019,2.084-0.039,3.092-0.058C77.708,74.447,79.118,74.421,80.446,74.393z M80.784,73.376  c-1.455-3.177-2.889-5.256-5.504-8.528c0.221,0.783,0.469,1.564,0.752,2.373c0.008,0.016,0.016,0.03,0.021,0.046  c0.01,0.026,0.783,2.188,2.154,5.687C79.126,73.101,79.989,73.242,80.784,73.376z M83.948,73.426  c-0.947-1.183-1.91-2.494-2.74-3.857c-2.545-4.168-4.324-9.136-4.963-11.051c-0.002,0.018-0.008,0.036-0.01,0.054  c-0.602,1.089-1.178,1.975-1.762,2.638c0.072,0.429,0.15,0.845,0.234,1.254c0.023,0.021,0.049,0.046,0.07,0.071  c3.752,4.616,5.422,6.86,7.264,11.051c0.664,0.112,1.262,0.214,1.773,0.302C83.858,73.747,83.903,73.596,83.948,73.426z   M81.608,64.425l-0.008,0.007c-0.289-0.44-0.566-0.889-0.838-1.338c-0.174-0.284-0.277-0.461-0.299-0.497  c-0.002-0.003-0.002-0.005-0.004-0.008c-1.211-2.074-2.229-4.23-3.119-6.402c-0.105,0.319-0.232,0.643-0.379,0.975  c0.057,0.23,0.119,0.464,0.182,0.697c0.504,1.554,2.312,6.811,4.967,11.159c0.643,1.052,1.373,2.084,2.115,3.047  c0.168-1.091,0.246-2.451,0.064-4.016C83.224,66.771,82.288,65.448,81.608,64.425z M75.919,43.042  c-0.037-0.139-0.074-0.284-0.111-0.425c-0.5,0.337-1.111,0.593-1.762,0.792c0.752,2.26,1.494,4.655,2.322,7.097  c0.959,0.653,1.518,2.037,1.369,3.803c1.074,2.799,2.328,5.572,3.896,8.187c0.391,0.635,1.188,1.89,2.207,3.263  c-0.316-0.994-0.857-2.192-0.859-2.191c-0.615-1.378-1.328-2.936-1.881-4.275C78.688,53.43,77.214,47.94,75.919,43.042z   M70.067,37.835c-0.303,0.046-0.568,0.086-0.771,0.123c-3.172,0.577-6.611,0.933-10.418,1.084v5.285  c4.113-0.156,7.789-0.545,11.129-1.183c0.236-0.046,0.52-0.089,0.838-0.142c1.541-0.249,4.375-0.706,4.996-1.909l-0.371-4.849  C74.114,37.226,71.685,37.592,70.067,37.835z M89.804,11.032c-0.586,1.18-1.242,2.354-1.971,3.439  c-1.342,1.99-2.898,3.701-4.682,5.143c-3.973,3.451-8.748,5.998-13.533,7.208c-0.004,0.708,0.143,1.529,0.436,2.327  c0.014-0.003,0.023-0.008,0.037-0.011c6.135-1.045,10.65-2.897,14.641-6c0.213-0.166,0.516-0.145,0.703,0.047  c0.189,0.191,0.203,0.495,0.035,0.704c-2.043,2.524-4.986,5.403-14.029,7.729c0.572,0.698,1.215,0.907,2.111,0.72  c0.014-0.001,0.025-0.004,0.037-0.006c0.031-0.005,3.289-0.469,7.109-2.579c2.381-1.316,5.324-3.479,7.771-6.91  c0.004-0.004,0.004-0.009,0.008-0.013C91.093,18.039,90.454,13.433,89.804,11.032z M92.28,5.211c-0.49,1.293-1.09,2.83-1.809,4.413  c0.432,1.215,1.18,3.886,0.902,7.178C92.112,13.994,92.843,9.554,92.28,5.211z M93.376,2.397c-0.107,0.244-0.229,0.543-0.355,0.87  c0.232,1.071,0.375,2.162,0.449,3.25C93.554,4.711,93.499,3.236,93.376,2.397z"></path></g></defs><use style="fill:#FFFFFF;fill-opacity:1;" xlink:href="#id-IptOCySn0"></use></g>
</svg>
</g><g opacity="1" transform="rotate(0 551.0993 247.8577)">
<svg width="217.3487" height="131.7133" x="551.0993" y="247.8577" version="1.1" preserveAspectRatio="none" viewBox="0.28 -26.68 128.72 78">
  <g transform="matrix(1 0 0 1 0 0)" class="aD6z1nYkhcolor"><path id="id-D6z1nYkh12" d="M15.64-10.28L12-21.36L8.32-10.28L15.64-10.28ZM9.16 0L0.28 0L0.28-1.88L3.56-2.36L11.92-26.68L15.20-26.68L23.56-2.16L26.28-1.84L26.28 0L14.72 0L14.72-1.84L18.24-2.28L16.32-8.20L7.60-8.20L5.68-2.40L9.16-1.88L9.16 0Z M49.48 0L42.64 0.36L42.32-3.16Q39.40 0.56 35.52 0.56L35.52 0.56Q33.04 0.56 31.54-1.06Q30.04-2.68 30.08-6.64L30.08-6.64L30.24-16.52L27.64-17.08L27.64-18.64L34.64-19.48L35.12-19.04L34.92-13.44L34.92-6.80Q34.92-4.56 35.62-3.66Q36.32-2.76 37.64-2.76L37.64-2.76Q38.76-2.76 39.94-3.40Q41.12-4.04 42.20-5.04L42.20-5.04L42.32-16.52L39.80-17.08L39.80-18.56L46.64-19.48L47.16-19.04L47.04-13.44L47.04-2.16L49.48-1.64L49.48 0Z M62.72 0L51.96 0L51.96-1.64L54.52-2.12Q54.56-3.64 54.56-5.38Q54.56-7.12 54.56-8.40L54.56-8.40L54.56-10.52Q54.56-12.16 54.54-13.14Q54.52-14.12 54.44-15.32L54.44-15.32L51.64-15.68L51.64-17.20L58.32-19.72L58.96-19.32L59.36-14.60Q60.28-17.08 61.84-18.40Q63.40-19.72 64.96-19.72L64.96-19.72Q66.04-19.72 66.94-19.16Q67.84-18.60 68.12-17.56L68.12-17.56Q68.08-16.08 67.40-15.26Q66.72-14.44 65.52-14.44L65.52-14.44Q64.08-14.44 62.80-15.88L62.80-15.88L62.44-16.28Q60.32-14.52 59.40-11.32L59.40-11.32L59.40-8.40Q59.40-7.16 59.40-5.46Q59.40-3.76 59.44-2.28L59.44-2.28L62.72-1.64L62.72 0Z M79.40 0.56L79.40 0.56Q76.68 0.56 74.50-0.64Q72.32-1.84 71.04-4.12Q69.76-6.40 69.76-9.56L69.76-9.56Q69.76-12.76 71.10-15.04Q72.44-17.32 74.64-18.52Q76.84-19.72 79.40-19.72L79.40-19.72Q81.96-19.72 84.16-18.52Q86.36-17.32 87.72-15.06Q89.08-12.80 89.08-9.56L89.08-9.56Q89.08-6.36 87.78-4.10Q86.48-1.84 84.30-0.64Q82.12 0.56 79.40 0.56ZM79.40-1.40L79.40-1.40Q81.56-1.40 82.70-3.40Q83.84-5.40 83.84-9.52L83.84-9.52Q83.84-17.76 79.40-17.76L79.40-17.76Q75-17.76 75-9.52L75-9.52Q75-5.40 76.12-3.40Q77.24-1.40 79.40-1.40Z M102.72 0L91.96 0L91.96-1.64L94.52-2.12Q94.56-3.64 94.56-5.38Q94.56-7.12 94.56-8.40L94.56-8.40L94.56-10.52Q94.56-12.16 94.54-13.14Q94.52-14.12 94.44-15.32L94.44-15.32L91.64-15.68L91.64-17.20L98.32-19.72L98.96-19.32L99.36-14.60Q100.28-17.08 101.84-18.40Q103.40-19.72 104.96-19.72L104.96-19.72Q106.04-19.72 106.94-19.16Q107.84-18.60 108.12-17.56L108.12-17.56Q108.08-16.08 107.40-15.26Q106.72-14.44 105.52-14.44L105.52-14.44Q104.08-14.44 102.80-15.88L102.80-15.88L102.44-16.28Q100.32-14.52 99.40-11.32L99.40-11.32L99.40-8.40Q99.40-7.16 99.40-5.46Q99.40-3.76 99.44-2.28L99.44-2.28L102.72-1.64L102.72 0Z M124.88 0.48L124.88 0.48Q123.28 0.48 122.28-0.32Q121.28-1.12 120.92-2.52L120.92-2.52Q119.44-1 118.24-0.22Q117.04 0.56 115.12 0.56L115.12 0.56Q112.88 0.56 111.34-0.74Q109.80-2.04 109.80-4.48L109.80-4.48Q109.80-5.76 110.40-6.86Q111-7.96 112.54-8.92Q114.08-9.88 116.96-10.80L116.96-10.80Q117.76-11.08 118.76-11.36Q119.76-11.64 120.80-11.92L120.80-11.92L120.80-13.04Q120.80-15.84 120.02-16.82Q119.24-17.80 117.28-17.80L117.28-17.80Q116.92-17.80 116.50-17.76Q116.08-17.72 115.64-17.64L115.64-17.64L115.16-15.44Q115-14 114.32-13.32Q113.64-12.64 112.64-12.64L112.64-12.64Q110.72-12.64 110.40-14.44L110.40-14.44Q110.76-16.84 112.98-18.28Q115.20-19.72 118.84-19.72L118.84-19.72Q122.32-19.72 123.92-18.06Q125.52-16.40 125.52-12.48L125.52-12.48L125.52-3.76Q125.52-1.96 126.68-1.96L126.68-1.96Q127.44-1.96 128.08-2.84L128.08-2.84L129-2.04Q128.28-0.68 127.30-0.10Q126.32 0.48 124.88 0.48ZM114.48-5.32L114.48-5.32Q114.48-3.76 115.30-3.06Q116.12-2.36 117.32-2.36L117.32-2.36Q118-2.36 118.68-2.68Q119.36-3 120.80-4L120.80-4L120.80-10.32Q119.96-10.04 119.22-9.80Q118.48-9.56 117.96-9.36L117.96-9.36Q115.96-8.56 115.22-7.52Q114.48-6.48 114.48-5.32Z M3 17.64L0.28 17.36L0.28 15.48L12.16 15.48L12.16 17.40L8.56 17.80L14.64 35.68L20.72 17.84L17.36 17.40L17.36 15.48L26.32 15.48L26.32 17.36L23.08 17.84L14.72 42.16L11.96 42.16L3 17.64Z M37.76 42L27.84 42L27.84 40.36L30.48 39.84Q30.52 38.36 30.52 36.62Q30.52 34.88 30.52 33.60L30.52 33.60L30.52 31.72Q30.52 30.08 30.50 28.98Q30.48 27.88 30.40 26.68L30.40 26.68L27.56 26.32L27.56 24.80L34.76 22.28L35.40 22.68L35.28 28.32L35.28 33.60Q35.28 34.88 35.28 36.62Q35.28 38.36 35.32 39.88L35.32 39.88L37.76 40.36L37.76 42ZM32.88 18.56L32.88 18.56Q31.60 18.56 30.72 17.76Q29.84 16.96 29.84 15.72L29.84 15.72Q29.84 14.44 30.72 13.64Q31.60 12.84 32.88 12.84L32.88 12.84Q34.16 12.84 35.02 13.64Q35.88 14.44 35.88 15.72L35.88 15.72Q35.88 16.96 35.02 17.76Q34.16 18.56 32.88 18.56Z M50.24 42L39.88 42L39.88 40.36L42.60 39.84Q42.64 38.32 42.66 36.64Q42.68 34.96 42.68 33.60L42.68 33.60L42.68 16.44L39.76 16.04L39.76 14.48L47.04 12.68L47.64 13.04L47.48 18.68L47.48 31.84L54.12 25.12L51.12 24.52L51.16 22.84L60.60 22.84L60.60 24.52L56.96 25.04L52.92 28.96L59.08 39.80L61.68 40.36L61.68 42L54.92 42L49.56 32.24L47.48 34.28Q47.48 35.64 47.50 37.10Q47.52 38.56 47.56 39.88L47.56 39.88L50.24 40.36L50.24 42Z M72.92 42L63 42L63 40.36L65.64 39.84Q65.68 38.36 65.68 36.62Q65.68 34.88 65.68 33.60L65.68 33.60L65.68 31.72Q65.68 30.08 65.66 28.98Q65.64 27.88 65.56 26.68L65.56 26.68L62.72 26.32L62.72 24.80L69.92 22.28L70.56 22.68L70.44 28.32L70.44 33.60Q70.44 34.88 70.44 36.62Q70.44 38.36 70.48 39.88L70.48 39.88L72.92 40.36L72.92 42ZM68.04 18.56L68.04 18.56Q66.76 18.56 65.88 17.76Q65 16.96 65 15.72L65 15.72Q65 14.44 65.88 13.64Q66.76 12.84 68.04 12.84L68.04 12.84Q69.32 12.84 70.18 13.64Q71.04 14.44 71.04 15.72L71.04 15.72Q71.04 16.96 70.18 17.76Q69.32 18.56 68.04 18.56Z M85.24 42L75.36 42L75.36 40.36L77.96 39.84Q78 38.36 78 36.62Q78 34.88 78 33.60L78 33.60L78 31.48Q78 29.84 77.98 28.86Q77.96 27.88 77.88 26.68L77.88 26.68L75.08 26.32L75.08 24.80L81.76 22.28L82.40 22.68L82.68 25.76Q85.76 22.28 89.48 22.28L89.48 22.28Q92.08 22.28 93.50 24Q94.92 25.72 94.92 29.44L94.92 29.44L94.92 33.60Q94.92 34.96 94.92 36.68Q94.92 38.40 94.96 39.88L94.96 39.88L97.40 40.36L97.40 42L87.52 42L87.52 40.36L90.08 39.84Q90.12 38.36 90.12 36.66Q90.12 34.96 90.12 33.60L90.12 33.60L90.12 29.80Q90.12 27.44 89.48 26.54Q88.84 25.64 87.32 25.64L87.32 25.64Q85.20 25.64 82.84 27.60L82.84 27.60L82.84 33.60Q82.84 34.92 82.84 36.64Q82.84 38.36 82.88 39.88L82.88 39.88L85.24 40.36L85.24 42Z M108.08 33.52L108.08 33.52Q109.76 33.52 110.64 32.20Q111.52 30.88 111.52 28.68L111.52 28.68Q111.52 26.56 110.66 25.30Q109.80 24.04 108.20 24.04L108.20 24.04Q106.60 24.04 105.70 25.34Q104.80 26.64 104.80 28.80L104.80 28.80Q104.80 30.96 105.64 32.24Q106.48 33.52 108.08 33.52ZM103.04 45.72L103.04 45.72Q103.04 47.56 104.40 48.40Q105.76 49.24 108.28 49.24L108.28 49.24Q111.44 49.24 113.06 48.20Q114.68 47.16 114.68 45.68L114.68 45.68Q114.68 44.56 113.90 43.76Q113.12 42.96 111.20 42.96L111.20 42.96L106.76 42.96Q105.28 42.96 104.12 42.72L104.12 42.72Q103.04 44.16 103.04 45.72ZM108.16 35.28L108.16 35.28Q106.36 35.28 104.84 34.84L104.84 34.84Q104.08 35.88 104.08 37.04L104.08 37.04Q104.08 37.80 104.58 38.24Q105.08 38.68 106.40 38.68L106.40 38.68L111.40 38.68Q115.32 38.68 117 40.16Q118.68 41.64 118.68 44.16L118.68 44.16Q118.68 46.04 117.46 47.68Q116.24 49.32 113.86 50.32Q111.48 51.32 107.92 51.32L107.92 51.32Q104.84 51.32 102.98 50.68Q101.12 50.04 100.30 48.96Q99.48 47.88 99.48 46.56L99.48 46.56Q99.48 45.28 100.32 44.22Q101.16 43.16 103.08 42.24L103.08 42.24Q101.84 41.80 101.24 40.98Q100.64 40.16 100.64 39.08L100.64 39.08Q100.64 37.92 101.34 36.78Q102.04 35.64 103.52 34.28L103.52 34.28Q100.36 32.68 100.36 28.80L100.36 28.80Q100.36 25.84 102.44 24.06Q104.52 22.28 108.16 22.28L108.16 22.28Q111.80 22.28 113.84 23.96L113.84 23.96L118.36 22.24L118.96 22.64L118.96 25.44L115.08 25.44Q115.92 26.80 115.92 28.80L115.92 28.80Q115.92 31.72 113.88 33.50Q111.84 35.28 108.16 35.28Z"/></g>
</svg>
</g><g opacity="1" transform="rotate(0 518.5305 235.149)">
<svg width="3.1426" height="157.1308" x="518.5305" y="235.149" version="1.1" preserveAspectRatio="none" viewBox="0 0 3.1426 157.1308">
  <defs><rect x="0" y="0" width="3.1426" height="157.1308" rx="0px" ry="0px" id="id-tBXipXk0b"></rect></defs><use class="atBXipXk0bfillColor atBXipXk0bstrokeColor-str" style="stroke-width:0;" xlink:href="#id-tBXipXk0b"></use>
</svg>
</g><g opacity="1" transform="rotate(0 799.5305 235.1489)">
<svg width="3.1426" height="157.1309" x="799.5305" y="235.1489" version="1.1" preserveAspectRatio="none" viewBox="0 0 3.1426 157.1309">
  <defs><rect x="0" y="0" width="3.1426" height="157.1309" rx="0px" ry="0px" id="id-rwj6VXffs0"></rect></defs><use class="arwj6VXffs0fillColor arwj6VXffs0strokeColor-str" style="stroke-width:0;" xlink:href="#id-rwj6VXffs0"></use>
</svg>
</g><g opacity="1" transform="rotate(0 830.7577 247.8577)">
<svg width="89.8882" height="131.7133" x="830.7577" y="247.8577" version="1.1" preserveAspectRatio="none" viewBox="19.287662506103516 4.999252796173096 61.42233657836914 90.00221252441406">
  <g transform="matrix(1 0 0 1 0 0)"><defs><g id="id-dLNp3Kxgp0"><path d="M80.71,25.859c0-1.488-2.309-1.488-2.309,0c0,5.398,0,10.797,0,16.196c-0.464-0.27-0.969-0.488-1.482-0.674  c-1.033-0.373-2.065-0.746-3.099-1.119c0-5.679,0-11.357,0-17.035c0-1.489-2.309-1.489-2.309,0c0,5.4,0,10.801,0,16.201  c-1.146-0.414-2.293-0.828-3.438-1.242c-0.381-0.137-0.762-0.275-1.143-0.412c0-5.653,0-11.306,0-16.958  c0-1.489-2.309-1.489-2.309,0c0,5.375,0,10.75,0,16.125c-1.526-0.551-3.054-1.103-4.581-1.654c0-5.667,0-11.333,0-17  c0-1.488-2.308-1.488-2.308,0c0,5.389,0,10.777,0,16.166c-1.527-0.551-3.055-1.103-4.581-1.654c0-5.65,0-11.301,0-16.951  c0-1.489-2.309-1.489-2.309,0c0,5.372,0,10.745,0,16.117c-1.528-0.551-3.054-1.103-4.582-1.654c0-5.625,0-11.25,0-16.875  c0-1.488-2.309-1.488-2.309,0c0,5.347,0,10.694,0,16.041c-1.527-0.552-3.054-1.103-4.581-1.654c0-5.628,0-11.256,0-16.884  c0-1.489-2.308-1.489-2.308,0c0,5.35,0,10.7,0,16.05c-0.124-0.044-0.247-0.089-0.37-0.133c-1.404-0.507-2.808-1.014-4.211-1.521  c0-5.603,0-11.205,0-16.808c0-1.488-2.309-1.488-2.309,0c0,5.325,0,10.649,0,15.974c-1.527-0.551-3.054-1.103-4.581-1.654  c0-5.577,0-11.154,0-16.731c0-1.489-2.308-1.489-2.308,0c0,5.299,0,10.599,0,15.898c-0.865-0.313-1.729-0.625-2.593-0.937  c-1.404-0.507-2.003,1.725-0.614,2.226c6.422,2.319,12.844,4.638,19.266,6.956c10.221,3.691,20.442,7.381,30.662,11.072  c2.296,0.829,4.591,1.657,6.886,2.486c2.155,0.778,1.822,3.678-0.185,4.353c-0.962,0.323-1.925,0.647-2.887,0.972  c0-1.08,0-2.16,0-3.239c0-1.489-2.309-1.489-2.309,0c0,1.339,0,2.677,0,4.016c-1.527,0.515-3.054,1.028-4.581,1.542  c0-2.635,0-5.27,0-7.904c0-1.488-2.309-1.488-2.309,0c0,2.895,0,5.788,0,8.682c-1.526,0.514-3.054,1.027-4.581,1.541  c0-4.232,0-8.466,0-12.699c0-1.488-2.308-1.488-2.308,0c0,4.492,0,8.984,0,13.477c-1.527,0.514-3.055,1.027-4.581,1.542  c0-5.839,0-11.677,0-17.516c0-1.489-2.309-1.489-2.309,0c0,6.098,0,12.194,0,18.292c-1.277,0.43-2.552,0.859-3.829,1.288  c-0.262,0.088-0.512,0.192-0.753,0.308c0-7.389,0-14.776,0-22.166c0-0.035,0-0.07,0-0.106c0-1.488-2.309-1.488-2.309,0  c0,8.052,0,16.103,0,24.154c-1.555,2.037-1.846,4.934-0.384,7.324c1.114,1.822,3.162,2.615,4.978,3.544  c4.059,2.077,8.118,4.154,12.176,6.231c1.747,0.894,1.726,3.58,0.44,4.836c-0.374,0.365-0.748,0.73-1.123,1.096  c0-1.184,0-2.367,0-3.552c0-1.488-2.308-1.488-2.308,0c0,1.936,0,3.871,0,5.807c-0.021,0.02-0.041,0.039-0.062,0.06  c-1.507,1.471-3.014,2.942-4.52,4.414c0-4.546,0-9.093,0-13.639c0-1.488-2.309-1.488-2.309,0c0,5.298,0,10.596,0,15.894  c-0.228,0.222-0.456,0.444-0.682,0.666c-1.066,1.042,0.567,2.673,1.632,1.633c0.345-0.337,0.688-0.674,1.033-1.01  c0.016-0.015,0.031-0.029,0.046-0.045c2.283-2.23,4.566-4.46,6.85-6.69c0.014-0.013,0.027-0.024,0.039-0.038  c0.497-0.485,0.994-0.97,1.49-1.455c0.536-0.523,1.072-1.047,1.607-1.569c1.064-1.04,1.488-2.318,1.488-3.782  c0-1.887-0.66-3.697-2.441-4.608c-0.444-0.228-0.89-0.455-1.334-0.683c-0.177-0.091-0.354-0.182-0.531-0.271  c0-4.677,0-9.354,0-14.03c0-1.488-2.308-1.488-2.308,0c0,4.283,0,8.565,0,12.849c-1.527-0.781-3.055-1.563-4.581-2.345  c0-2.773,0-5.547,0-8.32c0-1.488-2.309-1.488-2.309,0c0,2.38,0,4.76,0,7.139c-1.088-0.557-2.175-1.112-3.263-1.669  c-0.959-0.491-1.732-1.081-2.266-2.054c-0.817-1.488-0.448-3.385,0.661-4.606c0.007-0.008,0.014-0.016,0.02-0.022  c0.176-0.19,0.367-0.365,0.577-0.518c0.924-0.672,2.233-0.944,3.299-1.303c9.027-3.038,18.053-6.076,27.08-9.113  c0.443-0.149,0.87-0.3,1.299-0.497c1.467-0.673,2.289-2.17,2.411-3.715c0.031-0.104,0.049-0.219,0.049-0.346  C80.71,39.263,80.71,32.561,80.71,25.859z"></path></g></defs><use style="fill:#FFFFFF;fill-opacity:1;" xlink:href="#id-dLNp3Kxgp0"></use></g>
</svg>
</g></svg>